<?xml version="1.0" encoding="UTF-8" standalone="no"?>
<!-- Created with Inkscape (http://www.inkscape.org/) -->

<svg
   xmlns:dc="http://purl.org/dc/elements/1.1/"
   xmlns:cc="http://creativecommons.org/ns#"
   xmlns:rdf="http://www.w3.org/1999/02/22-rdf-syntax-ns#"
   xmlns:svg="http://www.w3.org/2000/svg"
   xmlns="http://www.w3.org/2000/svg"
   xmlns:xlink="http://www.w3.org/1999/xlink"
   xmlns:sodipodi="http://sodipodi.sourceforge.net/DTD/sodipodi-0.dtd"
   xmlns:inkscape="http://www.inkscape.org/namespaces/inkscape"
   width="72"
   height="20"
   id="svg3787"
   version="1.1"
   inkscape:version="0.48.4 r9939"
   sodipodi:docname="missile.svg"
   inkscape:export-filename="/home/michael/Projects/Games/planet-battles/client/assets/missile.png"
   inkscape:export-xdpi="90"
   inkscape:export-ydpi="90">
  <defs
     id="defs3789">
    <linearGradient
       id="linearGradient10922">
      <stop
         style="stop-color:#f5f295;stop-opacity:1;"
         offset="0"
         id="stop10924" />
      <stop
         style="stop-color:#ff4f11;stop-opacity:0.7"
         offset="1"
         id="stop10926" />
    </linearGradient>
    <radialGradient
       inkscape:collect="always"
       xlink:href="#linearGradient10922"
       id="radialGradient10930"
       cx="11.114984"
       cy="1040.8756"
       fx="11.114984"
       fy="1040.8756"
       r="9.4279222"
       gradientTransform="matrix(-1.1952458,-0.02509317,0.00415348,-0.24939275,26.684901,1300.3456)"
       gradientUnits="userSpaceOnUse" />
    <filter
       inkscape:collect="always"
       id="filter11004"
       x="-0.13318767"
       width="1.2663753"
       y="-0.33963545"
       height="1.6792709">
      <feGaussianBlur
         inkscape:collect="always"
         stdDeviation="1.0901024"
         id="feGaussianBlur11006" />
    </filter>
  </defs>
  <sodipodi:namedview
     id="base"
     pagecolor="#ffffff"
     bordercolor="#666666"
     borderopacity="1.0"
     inkscape:pageopacity="0.0"
     inkscape:pageshadow="2"
     inkscape:zoom="1.4142136"
     inkscape:cx="-117.41927"
     inkscape:cy="-72.673261"
     inkscape:document-units="px"
     inkscape:current-layer="layer1"
     showgrid="false"
     inkscape:window-width="1144"
     inkscape:window-height="847"
     inkscape:window-x="61"
     inkscape:window-y="24"
     inkscape:window-maximized="0"
     inkscape:snap-page="true"
     showguides="true"
     inkscape:guide-bbox="true"
     fit-margin-top="0"
     fit-margin-left="0"
     fit-margin-right="0"
     fit-margin-bottom="0"
     inkscape:object-paths="true" />
  <metadata
     id="metadata3792">
    <rdf:RDF>
      <cc:Work
         rdf:about="">
        <dc:format>image/svg+xml</dc:format>
        <dc:type
           rdf:resource="http://purl.org/dc/dcmitype/StillImage" />
        <dc:title />
      </cc:Work>
    </rdf:RDF>
  </metadata>
  <g
     inkscape:label="Layer 1"
     inkscape:groupmode="layer"
     id="layer1"
     transform="translate(-0.07717772,-1029.4507)">
    <path
       style="fill:#808080;fill-opacity:1;fill-rule:nonzero;stroke:none"
       d="m 64.354766,1036.5869 c -13.457969,-4.1889 -34.977367,-1.6161 -34.977367,-1.6161 l 0,11.4605 c 0,0 22.916781,1.8253 34.977367,-1.0439 3.734405,-0.8886 7.705958,-3.7808 7.705958,-4.6865 0,-0.9054 -4.278859,-3.0473 -7.705958,-4.114 z"
       id="rect2989"
       inkscape:connector-curvature="0"
       sodipodi:nodetypes="sccsss"
       inkscape:export-filename="/home/michael/Projects/Games/planet-battles/client/assets/missile.png"
       inkscape:export-xdpi="90"
       inkscape:export-ydpi="90" />
    <path
       sodipodi:nodetypes="ccssscc"
       inkscape:connector-curvature="0"
       id="path3014"
       d="m 64.354766,1036.5869 c -0.892556,2.1501 -0.725245,6.5497 0,8.8005 0.113219,-0.027 0.226656,-0.057 0.340195,-0.084 3.631378,-0.9763 7.365763,-3.7226 7.365763,-4.6006 0,-0.8672 -3.92374,-2.868 -7.265873,-3.973 -0.147965,-0.047 -0.294791,-0.097 -0.440085,-0.1427 z"
       style="fill:#ff0000;fill-opacity:1;fill-rule:nonzero;stroke:none"
       inkscape:export-filename="/home/michael/Projects/Games/planet-battles/client/assets/missile.png"
       inkscape:export-xdpi="90"
       inkscape:export-ydpi="90" />
    <path
       style="fill:#000000;fill-opacity:0.19004529;fill-rule:nonzero;stroke:none"
       d="m 72.060724,1040.7099 c 0,0.9372 -4.090425,3.8206 -7.719324,4.6667 -12.066503,2.8126 -34.964001,1.0693 -34.964001,1.0693 -0.0034,-0.8904 0.01846,-2.7126 0.02374,-3.5326 0,0 24.59561,3.2931 42.659576,-2.2034 z"
       id="path3790"
       inkscape:connector-curvature="0"
       sodipodi:nodetypes="csccc"
       inkscape:export-filename="/home/michael/Projects/Games/planet-battles/client/assets/missile.png"
       inkscape:export-xdpi="90"
       inkscape:export-ydpi="90" />
    <path
       sodipodi:nodetypes="cccsc"
       inkscape:connector-curvature="0"
       id="path3794"
       d="m 70.829823,1040.3001 c -14.133346,-7.0144 -28.414955,-5.4509 -41.443257,-4.7796 -0.0031,0.6145 0.0042,2.2427 0.0042,2.2427 0,0 9.103684,-1.2152 17.891662,-1.1183 7.657307,0.082 16.661779,1.4368 23.547436,3.6552 z"
       style="fill:#ffffff;fill-opacity:0.34841632;fill-rule:nonzero;stroke:none"
       inkscape:export-filename="/home/michael/Projects/Games/planet-battles/client/assets/missile.png"
       inkscape:export-xdpi="90"
       inkscape:export-ydpi="90" />
    <path
       style="opacity:0.93999999;fill:url(#radialGradient10930);fill-opacity:1;fill-rule:nonzero;stroke:none;filter:url(#filter11004)"
       d="m 20.479786,1040.611 c 0,2.1271 -1.186994,3.5131 -2.818201,3.7232 -0.925035,0.1191 -12.3753771,-2.8932 -16.82510209,-4.0809 4.55133579,-0.8516 15.13381409,-4.0572 16.82510209,-3.6222 2.324975,0.5981 2.818201,1.8527 2.818201,3.9799 z"
       id="path10151"
       inkscape:connector-curvature="0"
       sodipodi:nodetypes="sscss"
       transform="matrix(1.2557065,0,0,0.96979153,2.3280784,31.431393)" />
    <path
       style="fill:#686868;fill-opacity:1;fill-rule:nonzero;stroke:none"
       d="m 29.377399,1037.6844 -5.319199,-2.8075 c 0,0 0.160542,3.8222 0.160542,5.7359 0,1.9137 -0.160542,5.736 -0.160542,5.736 l 5.319199,-2.9168 z"
       id="rect3796"
       inkscape:connector-curvature="0"
       sodipodi:nodetypes="ccsccc"
       inkscape:export-filename="/home/michael/Projects/Games/planet-battles/client/assets/missile.png"
       inkscape:export-xdpi="90"
       inkscape:export-ydpi="90" />
    <path
       sodipodi:nodetypes="ccccc"
       inkscape:connector-curvature="0"
       id="path3817"
       d="m 29.377399,1042.1566 -5.221895,1.5671 -0.0973,2.6251 5.319199,-2.9168 z"
       style="fill:#000000;fill-opacity:0.31674212;fill-rule:nonzero;stroke:none"
       inkscape:export-filename="/home/michael/Projects/Games/planet-battles/client/assets/missile.png"
       inkscape:export-xdpi="90"
       inkscape:export-ydpi="90" />
    <path
       sodipodi:nodetypes="ccccc"
       inkscape:connector-curvature="0"
       id="path3819"
       d="m 29.377399,1037.9031 -5.307731,-2.7779 0.03859,1.0208 5.27321,2.0057 z"
       style="fill:#fdfdfd;fill-opacity:0.34841632;fill-rule:nonzero;stroke:none"
       inkscape:export-filename="/home/michael/Projects/Games/planet-battles/client/assets/missile.png"
       inkscape:export-xdpi="90"
       inkscape:export-ydpi="90" />
    <g
       id="g3819"
       transform="matrix(1,0,0,1.1178761,23.981021,-122.52477)">
      <path
         style="fill:#a8a8a8;fill-opacity:1;fill-rule:nonzero;stroke:none"
         d="m 7.0254229,1030.722 16.8652881,3.4092 0,2.4957 -16.8652881,-0.04 z"
         id="path3791"
         inkscape:connector-curvature="0"
         sodipodi:nodetypes="ccccc" />
      <path
         sodipodi:nodetypes="ccccc"
         inkscape:connector-curvature="0"
         id="path3793"
         d="m 7.0254229,1030.722 0.3789952,0.58 0.2526651,5.8371 -0.6316603,0 z"
         style="fill:#7a7a7a;fill-opacity:1;fill-rule:nonzero;stroke:none" />
      <path
         sodipodi:nodetypes="ccccc"
         inkscape:connector-curvature="0"
         id="rect2990"
         d="m 7.4044182,1031.288 16.4862918,3.3688 0,2.4956 -16.4862918,0 z"
         style="fill:#474747;fill-opacity:1;fill-rule:nonzero;stroke:none" />
    </g>
    <path
       style="fill:#989898;fill-opacity:1;fill-rule:nonzero;stroke:none"
       d="m 30.816947,1049.4507 16.865287,-2.7192 0,-1.9906 -16.865287,0.032 z"
       id="path3826"
       inkscape:connector-curvature="0"
       sodipodi:nodetypes="ccccc" />
    <path
       sodipodi:nodetypes="ccccc"
       inkscape:connector-curvature="0"
       id="path3828"
       d="m 30.816947,1049.4507 0.378995,-0.8535 0.252665,-4.2649 -0.63166,0 z"
       style="fill:#7a7a7a;fill-opacity:1;fill-rule:nonzero;stroke:none" />
    <path
       sodipodi:nodetypes="ccccc"
       inkscape:connector-curvature="0"
       id="path3830"
       d="m 31.195942,1048.5972 16.486291,-2.4561 0,-1.8194 -16.486291,0 z"
       style="fill:#bdbdbd;fill-opacity:1;fill-rule:nonzero;stroke:none" />
  </g>
</svg>
