<?xml version="1.0" encoding="UTF-8" standalone="no"?>
<!-- Created with Inkscape (http://www.inkscape.org/) -->

<svg
   xmlns:dc="http://purl.org/dc/elements/1.1/"
   xmlns:cc="http://creativecommons.org/ns#"
   xmlns:rdf="http://www.w3.org/1999/02/22-rdf-syntax-ns#"
   xmlns:svg="http://www.w3.org/2000/svg"
   xmlns="http://www.w3.org/2000/svg"
   xmlns:sodipodi="http://sodipodi.sourceforge.net/DTD/sodipodi-0.dtd"
   xmlns:inkscape="http://www.inkscape.org/namespaces/inkscape"
   width="48.002525"
   height="20"
   id="svg3787"
   version="1.1"
   inkscape:version="0.48.4 r9939"
   sodipodi:docname="missile.svg"
   inkscape:export-filename="/home/michael/Projects/Games/planet-battles/client/assets/missile.png"
   inkscape:export-xdpi="90"
   inkscape:export-ydpi="90">
  <defs
     id="defs3789" />
  <sodipodi:namedview
     id="base"
     pagecolor="#ffffff"
     bordercolor="#666666"
     borderopacity="1.0"
     inkscape:pageopacity="0.0"
     inkscape:pageshadow="2"
     inkscape:zoom="5.5972222"
     inkscape:cx="3.358219"
     inkscape:cy="-7.9559758"
     inkscape:document-units="px"
     inkscape:current-layer="layer1"
     showgrid="false"
     inkscape:window-width="1144"
     inkscape:window-height="847"
     inkscape:window-x="51"
     inkscape:window-y="24"
     inkscape:window-maximized="0"
     inkscape:snap-page="true"
     showguides="true"
     inkscape:guide-bbox="true"
     fit-margin-top="0"
     fit-margin-left="0"
     fit-margin-right="0"
     fit-margin-bottom="0"
     inkscape:object-paths="true" />
  <metadata
     id="metadata3792">
    <rdf:RDF>
      <cc:Work
         rdf:about="">
        <dc:format>image/svg+xml</dc:format>
        <dc:type
           rdf:resource="http://purl.org/dc/dcmitype/StillImage" />
        <dc:title />
      </cc:Work>
    </rdf:RDF>
  </metadata>
  <g
     inkscape:label="Layer 1"
     inkscape:groupmode="layer"
     id="layer1"
     transform="translate(-0.07717772,-1029.4507)">
    <path
       style="fill:#808080;fill-opacity:1;fill-rule:nonzero;stroke:none"
       d="m 40.373745,1036.5869 c -13.457969,-4.1889 -34.9773678,-1.6161 -34.9773678,-1.6161 l 0,11.4605 c 0,0 22.9167818,1.8253 34.9773678,-1.0439 3.734405,-0.8886 7.705958,-3.7808 7.705958,-4.6865 0,-0.9054 -4.278859,-3.0473 -7.705958,-4.114 z"
       id="rect2989"
       inkscape:connector-curvature="0"
       sodipodi:nodetypes="sccsss"
       inkscape:export-filename="/home/michael/Projects/Games/planet-battles/client/assets/missile.png"
       inkscape:export-xdpi="90"
       inkscape:export-ydpi="90" />
    <path
       sodipodi:nodetypes="ccssscc"
       inkscape:connector-curvature="0"
       id="path3014"
       d="m 40.373745,1036.5869 c -0.892556,2.1501 -0.725245,6.5497 0,8.8005 0.113219,-0.027 0.226656,-0.057 0.340195,-0.084 3.631378,-0.9763 7.365763,-3.7226 7.365763,-4.6006 0,-0.8672 -3.92374,-2.868 -7.265873,-3.973 -0.147965,-0.047 -0.294791,-0.097 -0.440085,-0.1427 z"
       style="fill:#ff0000;fill-opacity:1;fill-rule:nonzero;stroke:none"
       inkscape:export-filename="/home/michael/Projects/Games/planet-battles/client/assets/missile.png"
       inkscape:export-xdpi="90"
       inkscape:export-ydpi="90" />
    <path
       style="fill:#000000;fill-opacity:0.19004529;fill-rule:nonzero;stroke:none"
       d="m 48.079703,1040.7099 c 0,0.9372 -4.090425,3.8206 -7.719324,4.6667 -12.066503,2.8126 -34.9640018,1.0693 -34.9640018,1.0693 -0.0034,-0.8904 0.018458,-2.7126 0.023743,-3.5326 0,0 24.5956108,3.2931 42.6595768,-2.2034 z"
       id="path3790"
       inkscape:connector-curvature="0"
       sodipodi:nodetypes="csccc"
       inkscape:export-filename="/home/michael/Projects/Games/planet-battles/client/assets/missile.png"
       inkscape:export-xdpi="90"
       inkscape:export-ydpi="90" />
    <path
       sodipodi:nodetypes="cccsc"
       inkscape:connector-curvature="0"
       id="path3794"
       d="m 46.848802,1040.3001 c -14.133346,-7.0144 -28.414955,-5.4509 -41.4432575,-4.7796 -0.00308,0.6145 0.00416,2.2427 0.00416,2.2427 0,0 9.1036845,-1.2152 17.8916625,-1.1183 7.657307,0.082 16.661779,1.4368 23.547436,3.6552 z"
       style="fill:#ffffff;fill-opacity:0.34841632;fill-rule:nonzero;stroke:none"
       inkscape:export-filename="/home/michael/Projects/Games/planet-battles/client/assets/missile.png"
       inkscape:export-xdpi="90"
       inkscape:export-ydpi="90" />
    <path
       style="fill:#686868;fill-opacity:1;fill-rule:nonzero;stroke:none"
       d="m 5.3963772,1037.6844 -5.31919895,-2.8075 c 0,0 0.16054273,3.8222 0.16054273,5.7359 0,1.9137 -0.16054273,5.736 -0.16054273,5.736 l 5.31919895,-2.9168 z"
       id="rect3796"
       inkscape:connector-curvature="0"
       sodipodi:nodetypes="ccsccc"
       inkscape:export-filename="/home/michael/Projects/Games/planet-battles/client/assets/missile.png"
       inkscape:export-xdpi="90"
       inkscape:export-ydpi="90" />
    <path
       sodipodi:nodetypes="ccccc"
       inkscape:connector-curvature="0"
       id="path3817"
       d="m 5.3963772,1042.1566 -5.22189488,1.5671 -0.0973046,2.6251 5.31919898,-2.9168 z"
       style="fill:#000000;fill-opacity:0.31674212;fill-rule:nonzero;stroke:none"
       inkscape:export-filename="/home/michael/Projects/Games/planet-battles/client/assets/missile.png"
       inkscape:export-xdpi="90"
       inkscape:export-ydpi="90" />
    <path
       sodipodi:nodetypes="ccccc"
       inkscape:connector-curvature="0"
       id="path3819"
       d="m 5.3963772,1037.9031 -5.30773072,-2.7779 0.0385924,1.0208 5.27321012,2.0057 z"
       style="fill:#fdfdfd;fill-opacity:0.34841632;fill-rule:nonzero;stroke:none"
       inkscape:export-filename="/home/michael/Projects/Games/planet-battles/client/assets/missile.png"
       inkscape:export-xdpi="90"
       inkscape:export-ydpi="90" />
    <g
       id="g3819"
       transform="matrix(1,0,0,1.1178761,0,-122.52477)">
      <path
         style="fill:#a8a8a8;fill-opacity:1;fill-rule:nonzero;stroke:none"
         d="m 7.0254229,1030.722 16.8652881,3.4092 0,2.4957 -16.8652881,-0.04 z"
         id="path3791"
         inkscape:connector-curvature="0"
         sodipodi:nodetypes="ccccc" />
      <path
         sodipodi:nodetypes="ccccc"
         inkscape:connector-curvature="0"
         id="path3793"
         d="m 7.0254229,1030.722 0.3789952,0.58 0.2526651,5.8371 -0.6316603,0 z"
         style="fill:#7a7a7a;fill-opacity:1;fill-rule:nonzero;stroke:none" />
      <path
         sodipodi:nodetypes="ccccc"
         inkscape:connector-curvature="0"
         id="rect2990"
         d="m 7.4044182,1031.288 16.4862918,3.3688 0,2.4956 -16.4862918,0 z"
         style="fill:#474747;fill-opacity:1;fill-rule:nonzero;stroke:none" />
    </g>
    <path
       style="fill:#989898;fill-opacity:1;fill-rule:nonzero;stroke:none"
       d="m 6.8359253,1049.4507 16.8652877,-2.7192 0,-1.9906 -16.8652877,0.032 z"
       id="path3826"
       inkscape:connector-curvature="0"
       sodipodi:nodetypes="ccccc" />
    <path
       sodipodi:nodetypes="ccccc"
       inkscape:connector-curvature="0"
       id="path3828"
       d="m 6.8359253,1049.4507 0.3789953,-0.8535 0.252665,-4.2649 -0.6316603,0 z"
       style="fill:#7a7a7a;fill-opacity:1;fill-rule:nonzero;stroke:none" />
    <path
       sodipodi:nodetypes="ccccc"
       inkscape:connector-curvature="0"
       id="path3830"
       d="m 7.2149206,1048.5972 16.4862914,-2.4561 0,-1.8194 -16.4862914,0 z"
       style="fill:#bdbdbd;fill-opacity:1;fill-rule:nonzero;stroke:none" />
  </g>
</svg>
