<?xml version="1.0" encoding="UTF-8" standalone="no"?>
<!-- Created with Inkscape (http://www.inkscape.org/) -->

<svg
   xmlns:dc="http://purl.org/dc/elements/1.1/"
   xmlns:cc="http://creativecommons.org/ns#"
   xmlns:rdf="http://www.w3.org/1999/02/22-rdf-syntax-ns#"
   xmlns:svg="http://www.w3.org/2000/svg"
   xmlns="http://www.w3.org/2000/svg"
   xmlns:xlink="http://www.w3.org/1999/xlink"
   xmlns:sodipodi="http://sodipodi.sourceforge.net/DTD/sodipodi-0.dtd"
   xmlns:inkscape="http://www.inkscape.org/namespaces/inkscape"
   width="64"
   height="64"
   id="svg10151"
   version="1.1"
   inkscape:version="0.48.4 r9939"
   sodipodi:docname="02.svg">
  <defs
     id="defs10153">
    <linearGradient
       id="linearGradient10929">
      <stop
         style="stop-color:#ffe94d;stop-opacity:0.84210527"
         offset="0"
         id="stop10931" />
      <stop
         id="stop10991"
         offset="0.5"
         style="stop-color:#f19a26;stop-opacity:0.92156863;" />
      <stop
         style="stop-color:#e30000;stop-opacity:1;"
         offset="1"
         id="stop10933" />
    </linearGradient>
    <radialGradient
       inkscape:collect="always"
       xlink:href="#linearGradient10929"
       id="radialGradient10944"
       gradientUnits="userSpaceOnUse"
       cx="31.68294"
       cy="34.657352"
       fx="31.68294"
       fy="34.657352"
       r="31.785715"
       gradientTransform="matrix(0.32206196,0.46528743,-0.44073791,0.30506932,36.024111,7.0841)" />
    <radialGradient
       inkscape:collect="always"
       xlink:href="#linearGradient10929"
       id="radialGradient10988"
       gradientUnits="userSpaceOnUse"
       gradientTransform="matrix(0.18342729,0.26499998,-0.25101804,0.1737493,34.254165,1006.2767)"
       cx="31.68294"
       cy="34.657352"
       fx="31.68294"
       fy="34.657352"
       r="31.785715" />
  </defs>
  <sodipodi:namedview
     id="base"
     pagecolor="#ffffff"
     bordercolor="#666666"
     borderopacity="1.0"
     inkscape:pageopacity="0.0"
     inkscape:pageshadow="2"
     inkscape:zoom="15.839192"
     inkscape:cx="40.073348"
     inkscape:cy="31.733015"
     inkscape:document-units="px"
     inkscape:current-layer="layer1"
     showgrid="false"
     inkscape:window-width="1549"
     inkscape:window-height="876"
     inkscape:window-x="51"
     inkscape:window-y="24"
     inkscape:window-maximized="1" />
  <metadata
     id="metadata10156">
    <rdf:RDF>
      <cc:Work
         rdf:about="">
        <dc:format>image/svg+xml</dc:format>
        <dc:type
           rdf:resource="http://purl.org/dc/dcmitype/StillImage" />
        <dc:title></dc:title>
      </cc:Work>
    </rdf:RDF>
  </metadata>
  <g
     inkscape:label="Layer 1"
     inkscape:groupmode="layer"
     id="layer1"
     transform="translate(0,-988.3622)">
    <path
       style="fill:url(#radialGradient10944);fill-opacity:1;fill-rule:nonzero;stroke:none"
       d="m 34.34375,17.5625 c -4.109032,0 -10.229628,1.95305 -12.78125,4.78125 -2.229855,2.4715 -4.03125,5.19045 -4.03125,8.78125 0,3.6526 -0.07982,7.23285 2.21875,9.71875 1.290754,1.3959 3.392148,3.1288 5.15625,4.0625 1.716848,0.9088 6.316331,2 8.3125,2 2.963697,0 5.584827,0.10785 7.84375,-1.46875 2.31219,-1.6138 2.671537,-4.66415 3.40625,-7.40625 0.40577,-1.5143 1.84375,-5.26625 1.84375,-6.96875 -5e-6,-2.3924 -1.907041,-3.18875 -2.96875,-5.15625 -0.984663,-1.8247 -1.264387,-3.138 -2.6875,-4.375 -1.981,-1.7218 -3.223859,-3.96875 -6.3125,-3.96875 z m -1.283788,9.563611 c 1.077538,0.343677 2.016715,0.570862 2.631503,2.003965 0.604686,1.1206 0.677345,0.627982 0.677347,1.990482 -0.08521,3.098847 -0.265203,1.47336 -1.706059,2.442258 -1.286548,0.8979 0.06025,3.621669 -1.627696,3.621669 -3.360394,0.302547 -2.642482,0.304733 -3.394351,-0.564561 -1.309127,-1.4159 -2.260153,-1.46253 -2.260153,-3.54283 0,-2.0451 -0.977798,-3.181708 0.292195,-4.589308 1.453252,-1.6108 3.046954,-1.361675 5.387214,-1.361675 z"
       transform="translate(0,988.3622)"
       id="path10159"
       inkscape:connector-curvature="0"
       sodipodi:nodetypes="sssccsscsscsccccccscc" />
  </g>
</svg>
