<?xml version="1.0" encoding="UTF-8" standalone="no"?>
<!-- Created with Inkscape (http://www.inkscape.org/) -->

<svg
   xmlns:dc="http://purl.org/dc/elements/1.1/"
   xmlns:cc="http://creativecommons.org/ns#"
   xmlns:rdf="http://www.w3.org/1999/02/22-rdf-syntax-ns#"
   xmlns:svg="http://www.w3.org/2000/svg"
   xmlns="http://www.w3.org/2000/svg"
   xmlns:xlink="http://www.w3.org/1999/xlink"
   xmlns:sodipodi="http://sodipodi.sourceforge.net/DTD/sodipodi-0.dtd"
   xmlns:inkscape="http://www.inkscape.org/namespaces/inkscape"
   width="64"
   height="64"
   id="svg10151"
   version="1.1"
   inkscape:version="0.48.4 r9939"
   sodipodi:docname="03.svg">
  <defs
     id="defs10153">
    <linearGradient
       id="linearGradient10929">
      <stop
         style="stop-color:#ffe94d;stop-opacity:0.84210527"
         offset="0"
         id="stop10931" />
      <stop
         id="stop10991"
         offset="0.5"
         style="stop-color:#f17f26;stop-opacity:0.92156863;" />
      <stop
         style="stop-color:#c10f0f;stop-opacity:1;"
         offset="1"
         id="stop10933" />
    </linearGradient>
    <radialGradient
       inkscape:collect="always"
       xlink:href="#linearGradient10929"
       id="radialGradient10944"
       gradientUnits="userSpaceOnUse"
       cx="31.68294"
       cy="34.657352"
       fx="31.68294"
       fy="34.657352"
       r="31.785715"
       gradientTransform="matrix(0.50236394,0.72577223,-0.687479,0.4758582,38.320786,981.36583)" />
  </defs>
  <sodipodi:namedview
     id="base"
     pagecolor="#ffffff"
     bordercolor="#666666"
     borderopacity="1.0"
     inkscape:pageopacity="0.0"
     inkscape:pageshadow="2"
     inkscape:zoom="3.959798"
     inkscape:cx="39.505166"
     inkscape:cy="29.442974"
     inkscape:document-units="px"
     inkscape:current-layer="layer1"
     showgrid="false"
     inkscape:window-width="1549"
     inkscape:window-height="876"
     inkscape:window-x="51"
     inkscape:window-y="24"
     inkscape:window-maximized="1" />
  <metadata
     id="metadata10156">
    <rdf:RDF>
      <cc:Work
         rdf:about="">
        <dc:format>image/svg+xml</dc:format>
        <dc:type
           rdf:resource="http://purl.org/dc/dcmitype/StillImage" />
        <dc:title></dc:title>
      </cc:Work>
    </rdf:RDF>
  </metadata>
  <g
     inkscape:label="Layer 1"
     inkscape:groupmode="layer"
     id="layer1"
     transform="translate(0,-988.3622)">
    <path
       style="fill:url(#radialGradient10944);fill-opacity:1;fill-rule:nonzero;stroke:none"
       d="m 35.699698,997.71041 c -6.409418,0 -15.956545,3.04649 -19.936658,7.45799 -3.478209,3.8551 -6.2880903,8.0962 -6.2880903,13.6973 0,5.6975 -0.1245061,11.2821 3.4608873,15.1597 2.013365,2.1773 5.291195,4.8804 8.042906,6.3368 2.678001,1.4176 9.852442,3.1197 12.966139,3.1197 4.622882,0 8.711416,0.1682 12.234966,-2.291 3.606638,-2.5173 4.167161,-7.2754 5.313193,-11.5526 0.632934,-2.362 2.875948,-8.2145 2.875948,-10.8701 -8e-6,-3.7317 -2.974672,-4.9739 -4.630764,-8.0429 -1.535913,-2.8462 -1.972237,-4.8948 -4.19206,-6.8243 -3.090036,-2.6857 -5.028693,-6.19059 -9.846467,-6.19059 z m 1.390358,13.39979 c 1.661195,0.6786 3.145745,1.2476 4.104714,3.483 0.943211,1.748 4.806547,5.8903 4.80655,8.0156 -0.132914,4.8337 -5.770816,3.8161 -8.018316,5.3274 -2.006804,1.4006 -3.03102,4.042 -5.663939,4.042 -5.241665,0.4719 -7.336124,-0.5961 -8.508917,-1.952 -2.042024,-2.2086 -2.989755,-7.6385 -2.989755,-10.8835 0,-3.19 5.349795,-6.4807 7.330777,-8.6763 2.266835,-2.5126 6.173335,-0.4857 8.938886,0.6438 z"
       id="path10159"
       inkscape:connector-curvature="0"
       sodipodi:nodetypes="sssccsscsscsacccccsca" />
  </g>
</svg>
