<?xml version="1.0" encoding="UTF-8" standalone="no"?>
<!-- Created with Inkscape (http://www.inkscape.org/) -->

<svg
   xmlns:dc="http://purl.org/dc/elements/1.1/"
   xmlns:cc="http://creativecommons.org/ns#"
   xmlns:rdf="http://www.w3.org/1999/02/22-rdf-syntax-ns#"
   xmlns:svg="http://www.w3.org/2000/svg"
   xmlns="http://www.w3.org/2000/svg"
   xmlns:xlink="http://www.w3.org/1999/xlink"
   xmlns:sodipodi="http://sodipodi.sourceforge.net/DTD/sodipodi-0.dtd"
   xmlns:inkscape="http://www.inkscape.org/namespaces/inkscape"
   width="64"
   height="64"
   id="svg10151"
   version="1.1"
   inkscape:version="0.48.4 r9939"
   sodipodi:docname="05.svg">
  <defs
     id="defs10153">
    <linearGradient
       id="linearGradient10929">
      <stop
         id="stop10991"
         offset="0"
         style="stop-color:#ff8e11;stop-opacity:0.92156863;" />
      <stop
         style="stop-color:#8e0b0b;stop-opacity:1;"
         offset="1"
         id="stop10933" />
    </linearGradient>
    <radialGradient
       inkscape:collect="always"
       xlink:href="#linearGradient10929"
       id="radialGradient11038"
       gradientUnits="userSpaceOnUse"
       gradientTransform="matrix(0.34174522,0.96595479,-0.75408174,0.39278872,38.456232,981.49716)"
       cx="31.68294"
       cy="34.657352"
       fx="31.68294"
       fy="34.657352"
       r="31.785715" />
    <radialGradient
       inkscape:collect="always"
       xlink:href="#linearGradient10929"
       id="radialGradient11101"
       gradientUnits="userSpaceOnUse"
       gradientTransform="matrix(0.64097872,0.78476306,-0.77084603,0.59061947,31.688308,970.13527)"
       cx="31.68294"
       cy="34.657352"
       fx="31.68294"
       fy="34.657352"
       r="31.785715" />
    <radialGradient
       inkscape:collect="always"
       xlink:href="#linearGradient10929"
       id="radialGradient11106"
       gradientUnits="userSpaceOnUse"
       gradientTransform="matrix(0.59827704,0.86433922,-0.81873492,0.56671073,43.828235,970.48275)"
       cx="31.68294"
       cy="34.657352"
       fx="31.68294"
       fy="34.657352"
       r="31.785715" />
    <radialGradient
       inkscape:collect="always"
       xlink:href="#linearGradient10929"
       id="radialGradient11111"
       gradientUnits="userSpaceOnUse"
       gradientTransform="matrix(0.59827704,0.86433922,-0.81873492,0.56671073,45.731245,978.32907)"
       cx="31.68294"
       cy="34.657352"
       fx="31.68294"
       fy="34.657352"
       r="31.785715" />
    <radialGradient
       inkscape:collect="always"
       xlink:href="#linearGradient10929"
       id="radialGradient11119"
       gradientUnits="userSpaceOnUse"
       gradientTransform="matrix(0.59827704,0.86433922,-0.81873492,0.56671073,39.006806,977.62562)"
       cx="31.68294"
       cy="34.657352"
       fx="31.68294"
       fy="34.657352"
       r="31.785715" />
    <filter
       inkscape:collect="always"
       id="filter11201">
      <feGaussianBlur
         inkscape:collect="always"
         stdDeviation="0.30811405"
         id="feGaussianBlur11203" />
    </filter>
    <filter
       inkscape:collect="always"
       id="filter11205">
      <feGaussianBlur
         inkscape:collect="always"
         stdDeviation="0.30811405"
         id="feGaussianBlur11207" />
    </filter>
    <filter
       inkscape:collect="always"
       id="filter11209">
      <feGaussianBlur
         inkscape:collect="always"
         stdDeviation="0.30811405"
         id="feGaussianBlur11211" />
    </filter>
    <filter
       inkscape:collect="always"
       id="filter11213">
      <feGaussianBlur
         inkscape:collect="always"
         stdDeviation="0.30811405"
         id="feGaussianBlur11215" />
    </filter>
    <filter
       inkscape:collect="always"
       id="filter11217">
      <feGaussianBlur
         inkscape:collect="always"
         stdDeviation="0.30811405"
         id="feGaussianBlur11219" />
    </filter>
  </defs>
  <sodipodi:namedview
     id="base"
     pagecolor="#ffffff"
     bordercolor="#666666"
     borderopacity="1.0"
     inkscape:pageopacity="0.0"
     inkscape:pageshadow="2"
     inkscape:zoom="5.6"
     inkscape:cx="15.148523"
     inkscape:cy="15.306872"
     inkscape:document-units="px"
     inkscape:current-layer="layer1"
     showgrid="false"
     inkscape:window-width="1549"
     inkscape:window-height="876"
     inkscape:window-x="51"
     inkscape:window-y="24"
     inkscape:window-maximized="1" />
  <metadata
     id="metadata10156">
    <rdf:RDF>
      <cc:Work
         rdf:about="">
        <dc:format>image/svg+xml</dc:format>
        <dc:type
           rdf:resource="http://purl.org/dc/dcmitype/StillImage" />
        <dc:title></dc:title>
      </cc:Work>
    </rdf:RDF>
  </metadata>
  <g
     inkscape:label="Layer 1"
     inkscape:groupmode="layer"
     id="layer1"
     transform="translate(0,-988.3622)">
    <path
       style="fill:url(#radialGradient11038);fill-opacity:1;fill-rule:nonzero;stroke:none;opacity:0.80000000000000004;filter:url(#filter11217)"
       d="m 6.3221916,1016.8774 c -4.2642042,-0.891 -3.8294027,5.9169 -4.1092168,10.536 2.508e-4,0.01 -0.0055,0.021 -0.00508,0.031 0.031056,1.034 0.1149268,2.1226 0.2255217,3.2122 0.1871697,1.8435 0.4928874,3.5876 0.8627626,5.2181 0.00831,0.021 0.00663,0.047 0.01515,0.067 0.1388021,0.3444 0.2942445,0.6706 0.4625495,1.0065 1.4665243,2.9263 1.0804312,3.0127 3.8914048,4.3589 4.4755863,-0.2044 5.0018263,-4.83 4.3611423,-8.7708 -0.571393,-3.5145 -5.4147029,-5.7441 -2.9258321,-11.8575 0.8209988,-2.0166 -1.5639931,-3.5174 -2.7782393,-3.8015 z"
       id="path11033"
       inkscape:connector-curvature="0"
       sodipodi:nodetypes="ccsscsccssc" />
    <path
       style="fill:url(#radialGradient11119);fill-opacity:1;fill-rule:nonzero;stroke:none;opacity:0.80000000000000004;filter:url(#filter11213)"
       d="m 18.723214,1042.7953 c -1.239367,0.4484 -2.886594,1.7735 -2.450893,3.1027 0.739296,2.2554 4.707895,3.587 6.21875,3.8259 3.969458,0.6275 11.957999,4.6214 11.227678,-0.5 -0.230384,-1.6156 -2.025661,-2.6118 -4.714285,-2.933 -5.133868,-0.6134 -7.295379,-4.5399 -10.28125,-3.4956 z"
       id="path11041"
       inkscape:connector-curvature="0"
       sodipodi:nodetypes="cssssc" />
    <path
       style="fill:url(#radialGradient11106);fill-opacity:1;fill-rule:nonzero;stroke:none;opacity:0.80000000000000004;filter:url(#filter11209)"
       d="m 41.428571,991.83095 c -3.06237,3.66821 0.185675,6.19808 2.732143,8.88835 2.102967,2.3181 6.913972,6.1873 8.147322,11.5536 0.273457,1.1898 3.481316,5.644 8.084821,2.7098 4.552078,-3.0161 -1.355122,-6.6495 -2.982143,-9.5446 -1.829154,-3.3896 -2.131098,-6.23439 -4.924107,-8.34822 -4.037139,-3.05542 -8.964214,-7.76698 -11.058036,-5.25893 z"
       id="path11104"
       inkscape:connector-curvature="0"
       sodipodi:nodetypes="scsccss" />
    <path
       style="fill:url(#radialGradient11111);fill-opacity:1;fill-rule:nonzero;stroke:none;opacity:0.80000000000000004;filter:url(#filter11205)"
       d="m 61.469974,1025.6282 c -1.625347,-0.2938 -4.766198,0.1653 -5.96875,2.7812 -1.58248,3.4424 -0.564717,8.5078 -2.169643,9.9866 -2.555076,2.3543 -12.596512,8.3858 -7.785714,12.5045 3.222008,2.7584 6.164232,1.0276 9.549107,-1.3348 4.29523,-2.9979 4.947664,-8.6562 6.3125,-13.75 0.67718,-3.4316 4.762815,-9.3381 0.0625,-10.1875 z"
       id="path11109"
       inkscape:connector-curvature="0"
       sodipodi:nodetypes="ssssccs" />
    <path
       style="fill:url(#radialGradient11101);fill-opacity:1;fill-rule:nonzero;stroke:none;opacity:0.80000000000000004;filter:url(#filter11201)"
       d="m 18.792198,990.59511 c -6.718625,1.23335 -8.414181,4.08918 -11.7941819,8.21121 -2.3720107,2.89278 -4.2534087,3.25498 -3.8975949,6.82238 0.2369226,2.3755 4.8837765,5.4224 9.7577388,2.8931 1.653916,-0.8583 3.038319,-3.6058 3.843719,-4.57 1.224962,-1.4663 4.980501,-2.9959 7.861954,-4.98443 3.547689,-2.44833 2.342731,-4.06379 1.182298,-5.8178 -0.640793,-0.96856 -5.242274,-2.86869 -6.953933,-2.55446 z"
       id="path11099"
       inkscape:connector-curvature="0"
       sodipodi:nodetypes="ssssssss" />
  </g>
</svg>
